<svg width="155" height="155" fill="none" xmlns="http://www.w3.org/2000/svg"><path d="M135.625 45.208c0 14.273-26.027 25.834-58.125 25.834s-58.125-11.56-58.125-25.834m116.25 0c0-14.273-26.027-25.833-58.125-25.833s-58.125 11.56-58.125 25.833m116.25 0V77.5M19.375 45.208V77.5m0 0c0 14.273 26.027 25.833 58.125 25.833M19.375 77.5v32.292c0 14.273 26.027 25.833 58.125 25.833m38.75-38.75v19.375m0 0v19.375m0-19.375h19.375m-19.375 0H96.875" stroke="#223647" stroke-width="2" stroke-linecap="round" stroke-linejoin="round"/></svg>