<svg width="155" height="155" viewBox="0 0 155 155" fill="none" xmlns="http://www.w3.org/2000/svg">
<path d="M66.9166 123.945C62.3108 122.9 57.8873 121.172 53.7933 118.817M88.0833 31.055C98.6039 33.4578 107.997 39.3613 114.725 47.799C121.453 56.2366 125.117 66.7084 125.117 77.5C125.117 88.2916 121.453 98.7634 114.725 107.201C107.997 115.639 98.6039 121.542 88.0833 123.945M38.2305 104.45C35.3439 100.257 33.1516 95.6254 31.7376 90.7345M30.5311 69.5625C31.3778 64.5354 33.0076 59.7729 35.2936 55.4073L36.1879 53.7933M50.5495 38.2305C55.5007 34.8222 61.0552 32.387 66.9166 31.055" stroke="#223647" stroke-width="2" stroke-linecap="round" stroke-linejoin="round"/>
<path d="M61.625 77.5L72.2083 88.0833L93.375 66.9167" stroke="#223647" stroke-width="2" stroke-linecap="round" stroke-linejoin="round"/>
</svg>
