<svg width="155" height="155" viewBox="0 0 155 155" fill="none" xmlns="http://www.w3.org/2000/svg">
<path d="M135.625 45.2083C135.625 59.4813 109.598 71.0417 77.5 71.0417C45.4021 71.0417 19.375 59.4813 19.375 45.2083M135.625 45.2083C135.625 30.9354 109.598 19.375 77.5 19.375C45.4021 19.375 19.375 30.9354 19.375 45.2083M135.625 45.2083V77.5M19.375 45.2083V77.5M19.375 77.5C19.375 91.7729 45.4021 103.333 77.5 103.333M19.375 77.5V109.792C19.375 124.065 45.4021 135.625 77.5 135.625M116.25 96.875V116.25M116.25 116.25V135.625M116.25 116.25H135.625M116.25 116.25H96.875" stroke="#223647" stroke-width="2" stroke-linecap="round" stroke-linejoin="round"/>
</svg>
